<?xml version="1.0" encoding="iso-8859-1"?>
<!-- Generator: Adobe Illustrator 19.0.0, SVG Export Plug-In . SVG Version: 6.00 Build 0)  -->
<svg version="1.1" id="Layer_1" xmlns="http://www.w3.org/2000/svg" xmlns:xlink="http://www.w3.org/1999/xlink" x="0px" y="0px"
	 viewBox="0 0 512 512" style="enable-background:new 0 0 512 512;" xml:space="preserve">
<g>
	<polygon style="fill:#FCE600;" points="26.999,449.322 87.773,449.203 87.892,388.429 148.583,388.392 148.62,327.701 
		209.394,327.582 209.513,266.808 270.312,266.664 186.48,182.832 10.008,356.558 10,449.276 	"/>
	<polygon style="fill:#50A5DC;" points="284.963,281.218 171.926,168.18 277.428,62.678 502,64.181 	"/>
	<path d="M511.251,60.385c-1.531-3.73-5.152-6.177-9.185-6.204l-224.572-1.503c-2.71-0.011-5.247,1.037-7.138,2.929L164.854,161.109
		c-3.905,3.905-3.905,10.237,0,14.143l7.477,7.477L2.993,349.431c-1.909,1.88-2.984,4.446-2.984,7.125L0,449.275
		c0,5.513,4.46,9.986,9.973,10.001l16.999,0.046c0.008,0,0.016,0,0.023,0s0.015,0,0.023,0l60.774-0.12
		c5.508-0.011,9.97-4.473,9.98-9.98l0.1-50.799l50.716-0.03c5.518-0.003,9.991-4.476,9.994-9.994l0.031-50.716l50.799-0.1
		c5.508-0.011,9.97-4.473,9.98-9.98l0.1-50.817l46.783-0.111l11.616,11.616c1.953,1.953,4.512,2.929,7.071,2.929
		s5.119-0.976,7.071-2.929L509.071,71.253C511.922,68.401,512.782,64.116,511.251,60.385z M209.489,256.808
		c-5.506,0.013-9.965,4.475-9.976,9.98l-0.1,50.813l-50.813,0.1c-5.513,0.011-9.977,4.481-9.98,9.994l-0.031,50.703l-50.703,0.03
		c-5.513,0.003-9.983,4.467-9.994,9.98l-0.1,50.813l-50.786,0.1l-7.005-0.019l0.007-78.557l166.417-163.827l59.802,59.802
		L209.489,256.808z M284.963,267.076l-98.896-98.896l95.474-95.474l196.476,1.315L284.963,267.076z"/>
	<circle style="fill:#FCE600;" cx="282.761" cy="167.858" r="32.038"/>
	<path d="M282.827,209.896c-23.144,0-41.972-18.829-41.972-41.972c0-5.523,4.477-10,10-10s10,4.477,10,10
		c0,12.116,9.856,21.972,21.972,21.972c12.115,0,21.972-9.856,21.972-21.972c0-5.523,4.477-10,10-10s10,4.477,10,10
		C324.798,191.067,305.97,209.896,282.827,209.896z"/>
	<path d="M300.932,151.576c-1.956,0-3.931-0.572-5.664-1.766c-3.665-2.524-7.967-3.858-12.442-3.858c-5.523,0-10-4.477-10-10
		s4.477-10,10-10c8.545,0,16.77,2.555,23.787,7.388c4.548,3.133,5.696,9.359,2.563,13.908
		C307.237,150.063,304.111,151.576,300.932,151.576z"/>
	<path d="M90.996,333.577c-2.598,0-5.194-1.006-7.153-3.011c-3.86-3.95-3.787-10.282,0.164-14.141l90.587-88.512
		c3.95-3.859,10.282-3.787,14.141,0.164c3.86,3.95,3.787,10.282-0.164,14.141L97.984,330.73
		C96.04,332.63,93.517,333.577,90.996,333.577z"/>
	<path d="M41.972,381.478c-2.598,0-5.194-1.006-7.153-3.011c-3.86-3.95-3.787-10.282,0.164-14.141l20.249-19.785
		c3.951-3.859,10.282-3.787,14.141,0.164c3.86,3.95,3.787,10.282-0.164,14.141L48.96,378.63
		C47.015,380.53,44.493,381.478,41.972,381.478z"/>
</g>
<g>
</g>
<g>
</g>
<g>
</g>
<g>
</g>
<g>
</g>
<g>
</g>
<g>
</g>
<g>
</g>
<g>
</g>
<g>
</g>
<g>
</g>
<g>
</g>
<g>
</g>
<g>
</g>
<g>
</g>
</svg>
