<?xml version="1.0" encoding="iso-8859-1"?>
<!-- Generator: Adobe Illustrator 19.0.0, SVG Export Plug-In . SVG Version: 6.00 Build 0)  -->
<svg version="1.1" id="Capa_1" xmlns="http://www.w3.org/2000/svg" xmlns:xlink="http://www.w3.org/1999/xlink" x="0px" y="0px"
	 viewBox="0 0 512 512" style="enable-background:new 0 0 512 512;" xml:space="preserve">
<path style="fill:#FEDA9B;" d="M397.401,421.946V277.871c0-18.498-10.427-35.416-26.951-43.731l-57.876-29.123
	c-16.524-8.315-26.951-25.233-26.951-43.731l0,0h-60.412l0,0c0,18.498-10.427,35.416-26.951,43.731l-57.876,29.123
	c-16.524,8.315-26.951,25.233-26.951,43.731v144.074H397.401z"/>
<g>
	<path style="fill:#FFC66C;" d="M169.326,335.644L169.326,335.644v86.302h228.076V277.871c0-18.498-10.427-35.416-26.951-43.731
		l-57.876-29.123l-15.222,29.364C271.156,284.918,224.539,321.79,169.326,335.644z"/>
	<path style="fill:#FFC66C;" d="M164.431,404.097l1.053-0.368c85.955-29.993,157.182-91.728,199.079-172.551l0,0l-51.988-26.161
		l-15.222,29.364c-26.198,50.537-72.816,87.409-128.028,101.263l0,0L164.431,404.097z"/>
</g>
<path style="fill:#FEDA9B;" d="M255.423,166.424L255.423,166.424c-35.341,0-63.992-28.65-63.992-63.992V73.99
	c0-35.341,28.65-63.992,63.992-63.992l0,0c35.341,0,63.992,28.65,63.992,63.992v28.441
	C319.414,137.773,290.764,166.424,255.423,166.424z"/>
<path style="fill:#FFB954;" d="M408.527,502.001H103.472c-22.107,0-40.028-17.921-40.028-40.028l0,0
	c0-22.107,17.921-40.028,40.028-40.028h305.055c22.107,0,40.028,17.921,40.028,40.028l0,0
	C448.555,484.081,430.634,502.001,408.527,502.001z"/>
<path d="M289.755,254.846c1.475,0.768,3.053,1.131,4.607,1.131c3.61,0,7.096-1.961,8.878-5.385l0.242-0.467
	c2.53-4.908,0.601-10.939-4.308-13.467c-4.909-2.532-10.939-0.601-13.467,4.308l-0.205,0.395
	C282.952,246.26,284.857,252.297,289.755,254.846z"/>
<path d="M408.527,411.947H407.4V277.871c0-22.41-12.436-42.589-32.454-52.662l-57.876-29.123
	c-12.289-6.184-20.243-18.135-21.312-31.673c20.24-13.217,33.655-36.055,33.655-61.981V73.99c0-40.799-33.192-73.99-73.99-73.99
	s-73.99,33.192-73.99,73.99v28.441c0,25.924,13.411,48.76,33.65,61.978c-1.068,13.54-9.022,25.492-21.312,31.676l-57.876,29.123
	c-20.018,10.074-32.454,30.252-32.454,52.662v134.077c-27.569,0.018-49.994,22.452-49.994,50.026
	c0,27.584,22.442,50.027,50.027,50.027h305.054c27.584,0,50.027-22.442,50.027-50.027
	C458.553,434.389,436.111,411.947,408.527,411.947z M201.43,102.432V73.99c0-29.772,24.221-53.993,53.993-53.993
	s53.993,24.221,53.993,53.993v28.441c0,29.771-24.221,53.993-53.993,53.993S201.43,132.203,201.43,102.432z M144.883,243.072
	l57.876-29.123c16.376-8.241,27.672-23.245,31.244-40.701c6.784,2.056,13.973,3.174,21.42,3.174c7.445,0,14.632-1.117,21.415-3.172
	c3.571,17.455,14.867,32.459,31.243,40.699l57.876,29.123c13.228,6.657,21.446,19.991,21.446,34.799v134.076H174.43v-67.302
	c41.388-10.956,77.863-33.955,105.62-66.649c3.575-4.209,3.059-10.52-1.151-14.093c-4.209-3.574-10.52-3.059-14.093,1.151
	c-23.947,28.206-55.068,48.434-90.376,58.835v-10.031c0-5.522-4.476-9.999-9.999-9.999s-9.999,4.476-9.999,9.999v98.089h-30.996
	V277.871C123.437,263.063,131.655,249.729,144.883,243.072z M73.443,461.973c0-16.559,13.471-30.029,30.029-30.029H334.51
	c-8.917,6.682-16.777,14.895-23.171,24.426c-14.94,22.27-39.873,35.566-66.69,35.566c0,0-20.338,0.025-20.706,0.066h-120.47
	C86.914,492.003,73.443,478.532,73.443,461.973z M408.527,492.003H304.69c8.953-6.693,16.842-14.93,23.257-24.492
	c14.941-22.27,39.873-35.566,66.691-35.566h13.888c16.559,0,30.029,13.471,30.029,30.029S425.086,492.003,408.527,492.003z"/>
<g>
</g>
<g>
</g>
<g>
</g>
<g>
</g>
<g>
</g>
<g>
</g>
<g>
</g>
<g>
</g>
<g>
</g>
<g>
</g>
<g>
</g>
<g>
</g>
<g>
</g>
<g>
</g>
<g>
</g>
</svg>
